<!DOCTYPE svg PUBLIC "-//W3C//DTD SVG 1.1//EN" "http://www.w3.org/Graphics/SVG/1.1/DTD/svg11.dtd">
<!-- Uploaded to: SVG Repo, www.svgrepo.com, Transformed by: SVG Repo Mixer Tools -->
<svg width="256px" height="256px" viewBox="0 0 24 24" fill="none" xmlns="http://www.w3.org/2000/svg">
<g id="SVGRepo_bgCarrier" stroke-width="0"/>
<g id="SVGRepo_tracerCarrier" stroke-linecap="round" stroke-linejoin="round"/>
<g id="SVGRepo_iconCarrier"> <path d="M5 12V18C5 18 5 21 12 21C19 21 19 18 19 18V12" stroke="#94a3b8" stroke-width="1.5"/> <path d="M5 6V12C5 12 5 15 12 15C19 15 19 12 19 12V6" stroke="#94a3b8" stroke-width="1.5"/> <path d="M12 3C19 3 19 6 19 6C19 6 19 9 12 9C5 9 5 6 5 6C5 6 5 3 12 3Z" stroke="#94a3b8" stroke-width="1.5"/> </g>
</svg>