<?xml version="1.0" standalone="no"?>
<!DOCTYPE svg PUBLIC "-//W3C//DTD SVG 20010904//EN"
 "http://www.w3.org/TR/2001/REC-SVG-20010904/DTD/svg10.dtd">
<svg version="1.0" xmlns="http://www.w3.org/2000/svg"
 width="225.000000pt" height="225.000000pt" viewBox="0 0 225.000000 225.000000"
 preserveAspectRatio="xMidYMid meet">

<g transform="translate(0.000000,225.000000) scale(0.100000,-0.100000)"
fill="#000000" stroke="none">
<path d="M663 1958 l-463 -291 0 -542 0 -542 458 -288 c251 -158 462 -288 467
-288 6 0 216 130 468 288 l457 288 0 542 0 542 -442 278 c-244 153 -452 284
-463 291 -18 12 -65 -16 -482 -278z m854 -115 c249 -157 328 -211 320 -219
-20 -19 -701 -447 -712 -447 -8 0 -373 227 -672 419 l-55 35 364 229 363 229
30 -19 c17 -11 179 -113 362 -227z m-855 -539 c172 -109 332 -210 356 -226
l42 -29 0 -419 c0 -231 -3 -420 -6 -420 -3 0 -165 100 -360 223 l-354 222 0
423 c0 232 2 422 4 422 3 0 146 -88 318 -196z m1248 -226 l0 -423 -354 -222
c-195 -123 -357 -223 -360 -223 -3 0 -6 190 -6 423 l1 422 352 222 c194 122
355 222 360 222 4 1 7 -189 7 -421z"/>
</g>
</svg>
