<?xml version="1.0" standalone="no"?>
<!DOCTYPE svg PUBLIC "-//W3C//DTD SVG 20010904//EN"
 "http://www.w3.org/TR/2001/REC-SVG-20010904/DTD/svg10.dtd">
<svg version="1.0" xmlns="http://www.w3.org/2000/svg"
 width="225.000000pt" height="225.000000pt" viewBox="0 0 225.000000 225.000000"
 preserveAspectRatio="xMidYMid meet">

<g transform="translate(0.000000,225.000000) scale(0.100000,-0.100000)"
fill="#000000" stroke="none">
<path d="M985 2240 c-151 -19 -333 -89 -475 -181 -84 -55 -264 -235 -319 -319
-250 -385 -250 -845 0 -1230 55 -84 235 -264 319 -319 340 -221 736 -249 1095
-76 231 111 443 329 547 565 182 414 99 879 -217 1209 -164 171 -333 271 -552
327 -107 27 -288 38 -398 24z m362 -220 c284 -67 522 -266 628 -529 92 -227
92 -505 0 -732 -85 -209 -275 -399 -484 -484 -227 -92 -505 -92 -732 0 -208
84 -390 264 -480 475 -98 232 -98 518 0 750 173 406 621 624 1068 520z"/>
<path d="M1202 1840 c-89 -54 -97 -175 -18 -249 37 -35 127 -41 174 -12 128
81 73 281 -77 281 -28 0 -59 -8 -79 -20z"/>
<path d="M1090 1350 c-91 -16 -166 -29 -166 -29 -1 -1 -4 -10 -7 -21 -4 -17 0
-20 32 -20 56 0 75 -26 68 -92 -3 -29 -42 -177 -87 -328 -90 -307 -97 -342
-80 -394 18 -56 62 -81 140 -81 81 0 150 35 217 110 61 67 116 151 108 164
-13 22 -31 9 -78 -55 -49 -66 -84 -91 -111 -81 -9 4 -16 17 -16 30 0 13 52
203 115 422 63 220 115 401 115 402 0 9 -105 -3 -250 -27z"/>
</g>
</svg>
