<?xml version="1.0" standalone="no"?>
<!DOCTYPE svg PUBLIC "-//W3C//DTD SVG 20010904//EN"
 "http://www.w3.org/TR/2001/REC-SVG-20010904/DTD/svg10.dtd">
<svg version="1.0" xmlns="http://www.w3.org/2000/svg"
 width="238.000000pt" height="212.000000pt" viewBox="0 0 238.000000 212.000000"
 preserveAspectRatio="xMidYMid meet">

<g transform="translate(0.000000,212.000000) scale(0.100000,-0.100000)"
fill="#000000" stroke="none">
<path d="M875 2004 c-60 -25 -130 -53 -154 -62 -74 -29 -77 -41 -46 -186 15
-68 25 -131 22 -140 -3 -8 -16 -22 -29 -30 -22 -14 -33 -13 -133 9 -123 28
-158 31 -173 13 -23 -28 -133 -312 -130 -336 2 -21 24 -39 107 -91 161 -102
161 -124 4 -226 -85 -55 -109 -75 -111 -95 -4 -37 111 -311 140 -333 22 -16
28 -16 146 10 131 29 146 27 168 -16 9 -17 5 -47 -16 -141 -22 -95 -25 -124
-16 -142 14 -27 283 -147 333 -147 30 -1 36 6 95 101 73 117 103 142 145 118
14 -8 54 -60 88 -115 53 -86 65 -100 91 -103 28 -3 299 103 331 129 18 16 16
45 -12 171 -23 103 -24 113 -9 135 8 13 22 27 31 30 9 3 69 -6 134 -21 66 -15
128 -24 139 -21 25 8 33 24 104 198 34 82 55 146 51 157 -3 10 -41 40 -83 66
-130 79 -142 91 -142 129 0 38 -3 36 138 125 78 50 92 63 92 86 0 14 -22 78
-49 142 -27 65 -56 134 -64 154 -10 24 -24 39 -39 43 -13 3 -77 -6 -142 -20
-101 -23 -122 -25 -143 -14 -35 19 -37 44 -9 168 30 131 30 132 14 154 -19 25
-318 148 -343 141 -14 -3 -45 -43 -86 -109 -66 -107 -96 -134 -138 -120 -11 3
-47 50 -81 106 -54 86 -91 130 -110 129 -3 0 -54 -21 -115 -46z m101 -102 c7
-4 35 -45 64 -92 29 -47 59 -91 68 -97 10 -8 47 -13 97 -13 95 0 94 -1 170
123 33 54 55 79 72 83 31 8 161 -42 177 -68 8 -13 6 -40 -8 -105 -34 -159 -36
-149 37 -222 l65 -64 110 27 c140 33 150 30 186 -63 27 -68 31 -98 18 -117 -4
-6 -45 -35 -92 -64 -47 -28 -91 -59 -97 -68 -8 -10 -13 -47 -13 -94 0 -92 0
-92 125 -172 l80 -52 -1 -44 c-1 -49 -39 -137 -66 -154 -13 -8 -42 -5 -105 8
-156 34 -144 36 -212 -31 -69 -68 -70 -70 -41 -191 33 -137 31 -142 -83 -187
-85 -34 -93 -30 -166 89 -29 47 -60 90 -69 95 -23 12 -152 11 -175 -1 -10 -5
-43 -48 -74 -96 -62 -97 -67 -102 -104 -102 -37 0 -151 61 -160 85 -3 11 4 63
17 115 13 52 23 103 24 113 0 27 -112 139 -141 140 -13 0 -68 -10 -121 -22
-88 -21 -100 -22 -120 -8 -30 19 -84 158 -71 182 5 9 52 44 104 78 l94 62 0
95 0 95 -95 62 c-52 35 -99 72 -104 83 -13 28 38 156 70 176 22 15 32 14 120
-5 53 -12 100 -24 105 -27 5 -3 19 0 31 7 32 15 128 117 128 134 0 7 -11 60
-25 116 -30 125 -26 134 67 172 65 27 95 32 114 19z"/>
<path d="M1141 1428 c-154 -24 -272 -142 -301 -300 -29 -156 63 -325 214 -394
197 -90 433 18 498 230 79 257 -142 507 -411 464z m174 -124 c128 -60 183
-224 119 -352 -109 -220 -444 -172 -484 69 -21 131 45 248 166 294 50 19 148
14 199 -11z"/>
</g>
</svg>
