<?xml version="1.0" standalone="no"?>
<!DOCTYPE svg PUBLIC "-//W3C//DTD SVG 20010904//EN"
 "http://www.w3.org/TR/2001/REC-SVG-20010904/DTD/svg10.dtd">
<svg version="1.0" xmlns="http://www.w3.org/2000/svg"
 width="512.000000pt" height="512.000000pt" viewBox="0 0 512.000000 512.000000"
 preserveAspectRatio="xMidYMid meet">

<g transform="translate(0.000000,512.000000) scale(0.100000,-0.100000)"
fill="#000000" stroke="none">
<path d="M2255 5109 c-656 -52 -1227 -259 -1549 -560 -102 -95 -167 -182 -221
-294 -79 -164 -75 -68 -75 -1695 0 -1595 -2 -1532 62 -1674 204 -452 844 -779
1698 -868 161 -16 619 -16 780 0 854 89 1494 416 1698 868 64 142 62 79 62
1674 0 1564 2 1515 -52 1650 -168 424 -767 762 -1538 869 -286 40 -597 51
-865 30z m515 -189 c394 -25 749 -101 1040 -225 451 -191 720 -479 697 -743
-32 -353 -506 -687 -1187 -836 -275 -60 -387 -71 -760 -71 -373 0 -485 11
-760 71 -594 130 -1037 403 -1160 714 -132 336 206 711 835 927 386 132 848
190 1295 163z m-1950 -1604 c311 -233 768 -388 1325 -452 205 -23 625 -23 830
0 475 54 864 171 1168 350 118 69 203 133 299 225 l78 74 0 -229 c0 -256 -9
-312 -66 -424 -179 -352 -748 -627 -1484 -717 -201 -24 -619 -24 -820 0 -363
44 -691 134 -943 257 -275 134 -452 285 -541 460 -57 112 -66 168 -66 424 l0
229 78 -74 c42 -41 106 -96 142 -123z m-6 -908 c258 -193 583 -326 993 -407
269 -54 405 -66 753 -66 348 0 484 12 753 66 496 98 892 284 1140 535 l69 69
-4 -290 c-4 -272 -6 -294 -27 -354 -64 -176 -250 -362 -495 -495 -256 -139
-585 -236 -986 -293 -179 -25 -721 -25 -900 0 -401 57 -730 154 -986 293 -245
133 -431 319 -495 495 -21 60 -23 82 -27 354 l-4 290 69 -69 c37 -38 103 -95
147 -128z m-173 -823 c17 -19 65 -64 108 -99 334 -278 846 -460 1461 -516 148
-14 552 -14 700 0 652 60 1206 268 1522 570 45 44 84 80 86 80 1 0 2 -112 2
-248 0 -270 -6 -314 -59 -428 -130 -278 -549 -533 -1081 -658 -273 -64 -508
-89 -820 -89 -312 0 -547 25 -820 89 -532 125 -951 380 -1081 658 -53 114 -59
158 -59 428 0 136 2 248 5 248 3 0 19 -16 36 -35z"/>
</g>
</svg>
